PathFileType	4	TRC_standard.trc
DataRate	CameraRate	NumFrames	NumMarkers	Units	OrigDataRate	OrigDataStartFrame	OrigNumFrames
100.0	100.0	5	37	mm	100.0	559	2234	
Frame#	Time	T10			C7			CLAV			RACR1			LACR1			RPSI			LPSI			RASI			LASI			LTH2			LTH3			LTH1			RTH2			RTH3			RTH1			RLFC			RMFC			RTB1			RTB3			RTB2			LLFC			LMFC			LTB1			LTB3			LTB2			LLMAL			LCAL			LMMAL			RLMAL			RMMAL			RCAL			RMT5			RMT1			RToe			LMT5			LMT1			LToe			
		X1	Y1	Z1	X2	Y2	Z2	X3	Y3	Z3	X4	Y4	Z4	X5	Y5	Z5	X6	Y6	Z6	X7	Y7	Z7	X8	Y8	Z8	X9	Y9	Z9	X10	Y10	Z10	X11	Y11	Z11	X12	Y12	Z12	X13	Y13	Z13	X14	Y14	Z14	X15	Y15	Z15	X16	Y16	Z16	X17	Y17	Z17	X18	Y18	Z18	X19	Y19	Z19	X20	Y20	Z20	X21	Y21	Z21	X22	Y22	Z22	X23	Y23	Z23	X24	Y24	Z24	X25	Y25	Z25	X26	Y26	Z26	X27	Y27	Z27	X28	Y28	Z28	X29	Y29	Z29	X30	Y30	Z30	X31	Y31	Z31	X32	Y32	Z32	X33	Y33	Z33	X34	Y34	Z34	X35	Y35	Z35	X36	Y36	Z36	X37	Y37	Z37	
559	5.58	728.19812	1230.4701	-673.71698	727.93701	1494.4542	-569.40289	735.59637	1344.0553	-460.54953	569.03699	1446.5823	-536.72681	906.40802	1436.1146	-553.36615	658.69147	1017.84	-727.76801	746.9917	1019.5204	-729.31195	595.06677	993.51392	-492.16455	848.79095	984.43182	-498.72849	904.14496	766.61963	-571.86432	887.60339	700.98279	-551.48187	872.86511	847.16156	-516.62439	601.53168	731.12567	-442.13092	548.60541	789.34229	-482.4408	617.20807	844.65845	-454.30826	594.72229	508.69806	-477.20004				646.99774	401.05933	-439.39062	621.80255	321.52164	-459.24243	648.25592	270.76779	-454.8255	879.57227	496.26651	-644.67816				840.26868	378.51593	-674.9751	864.64221	347.01733	-740.68103	829.05725	298.63916	-766.54236	844.24207	201.00117	-948.74933				792.27386	226.47433	-1002.8201	631.8653	78.275513	-511.30338				672.61621	37.507545	-577.60077	635.68231	44.460648	-403.82852	713.23785	49.679962	-379.65695				845.44202	65.309647	-949.39563	772.87732	60.051662	-916.86609			
560	5.59	726.78821	1231.1583	-673.2063	726.90643	1495.1858	-568.98541	734.77008	1344.9003	-460.11777	568.14539	1447.5453	-535.88788	905.45795	1436.8427	-553.42896	657.47736	1018.5479	-727.2981	745.79395	1019.761	-728.83002	593.62988	994.39325	-491.54538	847.32318	985.19659	-498.14838	905.49567	768.36755	-569.71771	887.69238	702.07074	-546.01904	871.65833	848.64319	-514.65558	600.57983	730.50757	-443.56665	547.53723	789.21631	-483.23557	615.75458	844.46436	-454.36301	594.35223	508.25293	-480.99069				647.01184	400.31989	-444.40091	621.81946	320.84946	-464.75256	648.49261	270.11533	-460.86804	880.24304	496.35846	-635.22797				841.3465	378.77115	-665.54419	865.2912	347.9707	-731.97302	829.91455	299.77957	-758.1048	844.37512	204.58189	-941.659				792.03662	231.13423	-995.10754	632.12836	78.375992	-519.02478				672.54395	37.743591	-585.62872	635.67529	44.435574	-411.69672	713.47931	49.121937	-387.25082				846.06702	68.318565	-945.25494	773.56952	61.742813	-912.39465			
561	5.6	725.42963	1231.8198	-672.78925	725.94019	1495.8827	-568.63788	734.0061	1345.6886	-459.77444	567.31702	1448.4795	-535.13574	904.57043	1437.5138	-553.57721	656.34576	1019.2125	-726.97101	744.67365	1019.9775	-728.47192	592.20276	995.21289	-491.0816	845.87183	985.93677	-497.65671	906.56494	770.02832	-567.41547	887.82654	703.27429	-540.62939	870.48236	850.16278	-512.77179	599.63892	729.81384	-445.23474	546.48523	789.01727	-484.2561	614.30908	844.1864	-454.60818	593.98688	507.77667	-485.03476				647.00494	399.59497	-449.60156	621.83093	320.19189	-470.41998	648.7309	269.48907	-467.0347	880.90155	496.58282	-625.5708				842.33075	379.13751	-655.72308	865.85785	348.89264	-722.7796	830.62146	300.87479	-749.11511	844.36603	207.7247	-933.82104				791.65234	234.92802	-986.85785	632.43988	78.503517	-526.77661				672.52612	37.965271	-593.6463	635.69287	44.482349	-419.58316	713.71399	48.665741	-394.86725				846.62231	71.208794	-939.19299	774.79535	63.454575	-906.31659			
562	5.61	724.12323	1232.45	-672.46698	725.03711	1496.5402	-568.36145	733.30432	1346.4161	-459.52054	566.54968	1449.3787	-534.47064	903.7439	1438.1245	-553.81335	655.30145	1019.832	-726.78442	743.63586	1020.1708	-728.23608	590.78955	995.96893	-490.77325	844.44067	986.64783	-497.25375	907.33514	771.5896	-564.94061	887.9892	704.59668	-535.32635	869.33807	851.71362	-510.98038	598.71106	729.0528	-447.12277	545.45367	788.7511	-485.49268	612.87793	843.82886	-455.03894	593.62219	507.27499	-489.31592				646.97394	398.88379	-454.98218	621.83331	319.54913	-476.2406	648.96454	268.88733	-473.3241	881.52893	496.9491	-615.7533				843.20331	379.62045	-645.55121	866.32916	349.77747	-713.13318	831.16315	301.91229	-739.59503	844.20929	210.3678	-925.24622				791.10913	237.77301	-978.08655	632.7901	78.65097	-534.56897				672.55615	38.174286	-601.66986	635.7337	44.581688	-427.49921	713.93921	48.293777	-402.5224				846.98224	73.881775	-931.11035	776.65839	65.155045	-898.66449			
563	5.62	722.87	1233.0447	-672.23987	724.19537	1497.1541	-568.15656	732.66443	1347.0796	-459.35632	565.84113	1450.2361	-533.8916	902.9765	1438.6722	-554.13873	654.34863	1020.405	-726.73413	742.685	1020.3414	-728.11914	589.39471	996.65796	-490.61884	843.03375	987.32599	-496.93866	907.82501	773.05389	-562.30621	888.16412	706.03802	-530.12244	868.22601	853.28802	-509.28677	597.79724	728.23297	-449.21713	544.44562	788.42474	-486.93396	611.46692	843.39606	-455.64899	593.25409	506.75327	-493.81757				646.91461	398.18527	-460.53165	621.82214	318.92117	-482.20963	649.18646	268.30814	-479.73398	882.10681	497.46405	-605.82373				843.9494	380.22379	-635.06989	866.69507	350.61942	-703.06824	831.53082	302.87903	-729.56842	843.90521	212.45314	-915.94501				790.40332	239.60062	-968.79901	633.16815	78.811279	-542.40967				672.62646	38.371815	-609.71295	635.79468	44.716728	-435.45364	714.15088	47.990704	-410.22995				847.008	76.2397	-920.93408	779.24768	66.812782	-889.49872			
